# xmcd CD database file
#
# Track frame offsets:
#	187
#	12572
#	25247
#	38482
#	57085
#	68110
#	79887
#	96860
#	112172
#	126085
#	144037
#	156992
#
# Disc length: 2342 seconds
#
# Revision: 1
# Processed by: cddbd v1.5.2PL0 Copyright (c) Steve Scherf et al.
# Submitted via: CDex 1.70beta2
#
DISCID=9a09240c
DTITLE=Gene  Watson - Greatest Hits
DYEAR=1990
DGENRE=Country
TTITLE0=Got No Reason Now For Goin' Home
TTITLE1=I Don't Need A Thing At All
TTITLE2=One Sided Conversation
TTITLE3=Farewell Party
TTITLE4=Pick The Wildwood Flower
TTITLE5=Should I Come Home (Or Should I Go Crazy)
TTITLE6=Nothing Sure Looked Good On You
TTITLE7=Love In The Hot Afternoon
TTITLE8=Where Love Begins
TTITLE9=Paper Rosie
TTITLE10=You Could Know As Much About A Stranger
TTITLE11=The Old Man And His Horn
EXTD=YEAR: 1990
EXTT0=
EXTT1=
EXTT2=
EXTT3=
EXTT4=
EXTT5=
EXTT6=
EXTT7=
EXTT8=
EXTT9=
EXTT10=
EXTT11=
PLAYORDER=
